<svg width="55" height="70" viewBox="0 0 55 70" fill="none" xmlns="http://www.w3.org/2000/svg">
<circle cx="26.5" cy="48.5" r="19.5" fill="#C63B26" stroke="white" stroke-width="4"/>
<path d="M24.2337 4.38337C24.2225 3.97716 24.2928 3.57283 24.4405 3.19427C24.5883 2.81571 24.8104 2.47061 25.0938 2.17936C25.3772 1.88812 25.7161 1.65664 26.0905 1.49861C26.4648 1.34058 26.8671 1.25921 27.2735 1.25931C27.6798 1.2594 28.0821 1.34097 28.4564 1.49917C28.8307 1.65737 29.1695 1.88901 29.4527 2.18039C29.736 2.47177 29.9579 2.81697 30.1055 3.1956C30.253 3.57423 30.3232 3.9786 30.3118 4.38481C30.2976 5.18186 29.9709 5.94143 29.402 6.49993C28.8332 7.05843 28.0678 7.37118 27.2706 7.3708C26.4734 7.37043 25.7083 7.05696 25.14 6.49792C24.5717 5.93889 24.2457 5.179 24.2322 4.38194M27.272 15.8488V8.68293M24.4057 17.282L22.5769 45.7594C22.5232 46.5014 22.7069 47.2412 23.1015 47.8719L27.272 54.5448L31.4426 47.8719C31.8371 47.2412 32.0208 46.5014 31.9671 45.7594L30.1384 17.282M37.3043 14.4157L36.4845 15.2354C35.7242 15.9954 34.6932 16.4223 33.6182 16.4221H20.9259C19.8509 16.4223 18.8198 15.9954 18.0595 15.2354L17.2397 14.4157" stroke="white" stroke-width="2" stroke-linecap="round" stroke-linejoin="round"/>
</svg>
